<?xml version="1.0" encoding="UTF-8" standalone="no"?>
<!-- Created with Inkscape (http://www.inkscape.org/) -->

<svg
   xmlns:dc="http://purl.org/dc/elements/1.1/"
   xmlns:cc="http://creativecommons.org/ns#"
   xmlns:rdf="http://www.w3.org/1999/02/22-rdf-syntax-ns#"
   xmlns:svg="http://www.w3.org/2000/svg"
   xmlns="http://www.w3.org/2000/svg"
   xmlns:xlink="http://www.w3.org/1999/xlink"
   xmlns:sodipodi="http://sodipodi.sourceforge.net/DTD/sodipodi-0.dtd"
   xmlns:inkscape="http://www.inkscape.org/namespaces/inkscape"
   width="210mm"
   height="297mm"
   viewBox="0 0 744.09448819 1052.3622047"
   id="svg2"
   version="1.1"
   inkscape:version="0.92.0 r15299"
   sodipodi:docname="screenshot.svg">
  <defs
     id="defs4">
    <path
       style="fill:none;fill-opacity:1;stroke:none;stroke-width:3;stroke-linejoin:round;stroke-miterlimit:4;stroke-dasharray:3, 3;stroke-dashoffset:0;stroke-opacity:1"
       id="path4136"
       sodipodi:type="arc"
       sodipodi:cx="734.04938"
       sodipodi:cy="-59.640743"
       sodipodi:rx="348.57144"
       sodipodi:ry="348.57144"
       sodipodi:start="0"
       sodipodi:end="6.2592219"
       sodipodi:open="true"
       d="M 1082.6208,-59.640743 A 348.57144,348.57144 0 0 1 736.1376,288.92444 348.57144,348.57144 0 0 1 385.50296,-55.464363 348.57144,348.57144 0 0 1 727.785,-408.15589 348.57144,348.57144 0 0 1 1082.5207,-67.992903"
       transform="matrix(-0.9226669,0.38559797,-0.38559797,-0.9226669,0,0)" />
  </defs>
  <sodipodi:namedview
     id="base"
     pagecolor="#ffffff"
     bordercolor="#666666"
     borderopacity="1.0"
     inkscape:pageopacity="0.0"
     inkscape:pageshadow="2"
     inkscape:zoom="0.49497475"
     inkscape:cx="-2361.3058"
     inkscape:cy="177.49942"
     inkscape:document-units="px"
     inkscape:current-layer="layer1"
     showgrid="false"
     inkscape:window-width="1920"
     inkscape:window-height="1017"
     inkscape:window-x="-8"
     inkscape:window-y="-8"
     inkscape:window-maximized="1" />
  <metadata
     id="metadata7">
    <rdf:RDF>
      <cc:Work
         rdf:about="">
        <dc:format>image/svg+xml</dc:format>
        <dc:type
           rdf:resource="http://purl.org/dc/dcmitype/StillImage" />
        <dc:title></dc:title>
      </cc:Work>
    </rdf:RDF>
  </metadata>
  <g
     inkscape:label="Capa 1"
     inkscape:groupmode="layer"
     id="layer1">
    <g
       id="g4233"
       transform="translate(-1172.0699,845.72831)"
       inkscape:export-xdpi="96"
       inkscape:export-ydpi="96">
      <rect
         y="-431.6438"
         x="-1651.1799"
         height="900"
         width="1200"
         id="rect4136"
         style="opacity:1;fill:#f2f2f2;fill-opacity:1;stroke:none;stroke-width:4;stroke-linejoin:round;stroke-miterlimit:4;stroke-dasharray:4, 4;stroke-dashoffset:0;stroke-opacity:1" />
      <path
         transform="rotate(168.99614)"
         d="m 1419.213,182.62534 a 383.8559,383.8559 0 0 1 -381.5563,383.849 383.8559,383.8559 0 0 1 -386.12799,-379.24987 383.8559,383.8559 0 0 1 376.92989,-388.39304 383.8559,383.8559 0 0 1 390.6441,374.59629"
         sodipodi:open="true"
         sodipodi:end="6.2592219"
         sodipodi:start="0"
         sodipodi:ry="383.8559"
         sodipodi:rx="383.8559"
         sodipodi:cy="182.62534"
         sodipodi:cx="1035.3571"
         sodipodi:type="arc"
         id="path4239"
         style="fill:none;fill-opacity:1;stroke:#000000;stroke-width:2.43166637;stroke-linejoin:round;stroke-miterlimit:4;stroke-dasharray:0, 2.4316664, 4.8633328, 7.2949992, 9.7266656, 12.158332, 14.5899984, 17.0216648, 19.4533312, 21.8849976, 24.316664, 26.7483304, 29.1799968, 31.6116632, 34.0433296;stroke-dashoffset:0;stroke-opacity:1" />
      <path
         transform="rotate(170.11506)"
         d="M 1321.2623,162.37256 A 282.5365,282.5365 0 0 1 1040.4185,444.90399 282.5365,282.5365 0 0 1 756.20961,165.75775 282.5365,282.5365 0 0 1 1033.6482,-120.11831 282.5365,282.5365 0 0 1 1321.1812,155.60267"
         sodipodi:open="true"
         sodipodi:end="6.2592219"
         sodipodi:start="0"
         sodipodi:ry="282.5365"
         sodipodi:rx="282.5365"
         sodipodi:cy="162.37256"
         sodipodi:cx="1038.7258"
         sodipodi:type="arc"
         id="path4159"
         style="fill:none;fill-opacity:1;stroke:none;stroke-width:3;stroke-linejoin:round;stroke-miterlimit:4;stroke-dasharray:3, 3;stroke-dashoffset:0;stroke-opacity:1" />
      <text
         transform="matrix(0.79042541,0.17952112,-0.17952112,0.79042541,-473.32398,-131.4099)"
         id="text4212"
         style="font-style:normal;font-weight:normal;font-size:40px;line-height:125%;font-family:sans-serif;letter-spacing:10px;word-spacing:0px;fill:#e62e39;fill-opacity:1;stroke:none;stroke-width:1px;stroke-linecap:butt;stroke-linejoin:miter;stroke-opacity:1"
         xml:space="preserve"><textPath
           style="font-style:normal;font-variant:normal;font-weight:normal;font-stretch:normal;font-size:125px;font-family:'Kenyan Coffee';-inkscape-font-specification:'Kenyan Coffee';letter-spacing:10px;fill:#e62e39;fill-opacity:1"
           id="textPath4226"
           xlink:href="#path4136"><tspan
   style="letter-spacing:10px;fill:#868789;fill-opacity:1"
   id="tspan4216"><tspan
   style="font-size:93.75px;letter-spacing:10px"
   id="tspan4220">www.</tspan>programa<tspan
   style="font-size:93.75px;letter-spacing:10px"
   id="tspan4222">con</tspan></tspan>SABA<tspan
   style="font-size:93.75px;letter-spacing:10px;fill:#868789;fill-opacity:1"
   id="tspan4218"> .com         <tspan
   id="tspan4225"
   style="letter-spacing:12.33721828px" /></tspan></textPath></text>
      <path
         style="fill:none;fill-opacity:1;stroke:#000000;stroke-width:2.43166637;stroke-linejoin:round;stroke-miterlimit:4;stroke-dasharray:0, 2.43166637, 4.86333275, 7.29499912, 9.72666549, 12.15833187, 14.58999824, 17.02166462, 19.45333099, 21.88499736, 24.31666374, 26.74833011, 29.17999648, 31.61166286, 34.04332923;stroke-dashoffset:30;stroke-opacity:1"
         id="path4237"
         sodipodi:type="arc"
         sodipodi:cx="-15.924877"
         sodipodi:cy="-1051.2212"
         sodipodi:rx="262.85156"
         sodipodi:ry="262.85156"
         sodipodi:start="0"
         sodipodi:end="6.2592219"
         sodipodi:open="true"
         d="m 246.92669,-1051.2212 a 262.85156,262.85156 0 0 1 -261.276872,262.84685 262.85156,262.85156 0 0 1 -264.407388,-259.69755 262.85156,262.85156 0 0 1 258.108833,-265.9584 262.85156,262.85156 0 0 1 267.499957,256.5109"
         transform="rotate(-90.132514)" />
      <path
         inkscape:connector-curvature="0"
         id="path60"
         style="fill:#ffffff;fill-rule:evenodd"
         d="m -1049.9208,212.03683 c 49.0613,0 89.42946,-50.29453 104.61457,-119.65325 0.84544,-3.879628 13.45069,14.26034 23.76844,-29.225217 6.44867,-27.198447 3.80141,-30.572145 -0.48124,-47.129699 -6.37516,-24.6246944 -14.23344,-0.987173 -13.87285,-9.6024046 3.63359,-86.5264924 17.76829,-153.3316994 -114.02892,-152.7675294 -127.9137,0.54837 -118.379,62.611323 -114.3787,145.2121434 0.532,10.9859456 -18.8814,-4.9089623 -18.7511,32.8172086 0.2458,69.985028 25.6593,59.541623 26.7242,63.291163 13.6595,48.106605 57.5939,117.057585 106.4056,117.057585 z" />
      <path
         inkscape:connector-curvature="0"
         id="path62"
         style="fill:#e62e39;fill-rule:evenodd"
         d="m -998.0447,123.22256 c -33.2926,17.64902 -72.9088,17.16861 -103.8205,0.0993 16.3068,-3.26358 33.5903,-5.17469 51.4323,-5.17996 19.1946,-0.006 39.6895,2.13578 52.3882,5.08066 z M -1100.257,-7.7919237 c 9.519,0 17.2363,7.61807256 17.2363,17.0168851 0,9.3938196 -7.7173,17.0121696 -17.2363,17.0121696 -9.5189,0 -17.2313,-7.61835 -17.2313,-17.0121696 0,-9.39881254 7.7124,-17.0168851 17.2313,-17.0168851 z m 4.3077,7.76424857 c 2.5743,0 4.6629,2.06255183 4.6629,4.60551523 0,2.5376933 -2.0886,4.594975 -4.6629,4.594975 -2.5691,0 -4.6577,-2.0572817 -4.6577,-4.594975 0,-2.5429634 2.0886,-4.60551523 4.6577,-4.60551523 z m 96.36434,-7.76424857 c -9.51894,0 -17.23654,7.61807256 -17.23654,17.0168851 0,9.3938196 7.7176,17.0121696 17.23654,17.0121696 9.51891,0 17.23629,-7.61835 17.23629,-17.0121696 0,-9.39881254 -7.71738,-17.0168851 -17.23629,-17.0168851 z m 4.30789,7.76951867 c 2.57403,0 4.65739,2.05728173 4.65739,4.60024513 0,2.5376933 -2.08336,4.594975 -4.65739,4.594975 -2.5743,0 -4.65766,-2.0572817 -4.65766,-4.594975 0,-2.5429634 2.08336,-4.60024513 4.65766,-4.60024513 z m 32.82803,-7.87935867 c -8.60525,-10.5579583 -14.05148,-23.3404543 -47.72026,-19.5651183 -9.3882,1.049582 -19.9673,12.902321 -21.9774,19.2622261 4.104,-1.3105914 9.9261,-9.3674691 22.672,-12.4898671 12.46904,-3.059988 31.73681,-1.368007 47.02566,12.7927593 z m -174.94386,0 c 8.6,-10.5579583 14.0512,-23.3404543 47.72,-19.5651183 9.3885,1.049582 19.9673,12.902321 21.9724,19.2622261 -4.099,-1.3105914 -9.9211,-9.3674691 -22.667,-12.4898671 -12.469,-3.059988 -31.7365,-1.368007 -47.0254,12.7927593 z m 74.9819,74.3658677 c 2.3078,0 4.1826,1.634287 4.1826,3.644693 0,2.010128 -1.8748,3.644692 -4.1826,3.644692 -2.308,0 -4.1772,-1.634564 -4.1772,-3.644692 0,-2.010406 1.8692,-3.644693 4.1772,-3.644693 z m 24.98,0 c 2.3078,0 4.1773,1.634287 4.1773,3.644693 0,2.010128 -1.8695,3.644692 -4.1773,3.644692 -2.308,0 -4.1825,-1.634564 -4.1825,-3.644692 0,-2.010406 1.8745,-3.644693 4.1825,-3.644693 z m 95.2885,24.113218 -0.24021,1.101729 c 4.60552,-1.059846 9.14308,-5.566061 12.93394,-12.307355 4.57418,-8.140367 7.95758,-19.445016 9.04905,-31.945422 0.24547,-2.830323 0.36558,-5.602952 0.36558,-8.260748 0,-10.187109 -1.70752,-19.136854 -4.6524,-25.601328 l -0.0111,-0.01109 c -1.75966,-3.8690879 -3.94758,-6.8086958 -6.43313,-8.5372896 -1.05985,1.1175392 -1.92137,2.4908171 -2.13023,4.4906825 -2.35491,22.7138661 -4.79358,60.1160641 -10.14024,80.9448981 0.42272,0.01942 0.84045,0.06269 1.25817,0.125373 z m -1.19576,5.273709 c -6.45893,27.063639 -16.95448,51.014869 -30.33721,70.037169 v -0.0111 c -20.18144,28.68739 -46.91583,46.15889 -76.24563,46.15889 -29.3295,0 -56.0639,-17.4715 -76.2401,-46.15889 v 0.0111 c -13.3883,-19.02757 -23.8835,-42.99461 -30.348,-70.068513 l -0.3132,0.03134 h -0.089 l -0.914,0.04188 -0.083,0.0055 c -6.8455,0 -13.4038,-5.581872 -18.4686,-14.58404 -4.8352,-8.610238 -8.4119,-20.484058 -9.5503,-33.543373 -0.2507,-2.913535 -0.3761,-5.801274 -0.3761,-8.605246 0,-10.730207 1.8487,-20.254392 5.0232,-27.240885 h -0.01 c 1.8956,-4.1772496 4.2973,-7.4824363 7.0858,-9.659821 -5.0962,-23.283037 -22.6825,-113.068122 9.6495,-131.312372 3.1957,1.47256 16.4217,4.18251 21.9411,4.26072 -10.9446,-2.66306 -21.0066,-6.38069 -21.0482,-6.4015 -12.0671,-6.34437 -19.7532,-13.0019 -14.2079,-22.33802 21.7478,9.92111 34.3475,-4.81937 57.6044,-9.76439 27.2096,-5.78547 52.6334,-12.69346 74.3501,-11.98339 17.8005,0.5847 32.666,7.61807 47.71994,13.38801 64.67443,24.78695 82.20335,69.264402 70.03717,164.1559348 2.7829,2.1826547 5.18495,5.4775786 7.08025,9.6548282 h -0.006 c 3.17455,6.986493 5.02296,16.510678 5.02296,27.240885 0,2.803972 -0.12509,5.691711 -0.37584,8.605246 -1.13834,13.059315 -4.71508,24.933135 -9.55026,33.543373 -4.7883,8.516487 -10.91826,13.967715 -17.35666,14.536886 z m -214.07404,-3.952578 -0.2874,-1.321131 c 0.4857,-0.07323 0.9714,-0.120103 1.4673,-0.135913 -5.1849,-23.319374 -10.6154,-76.997314 -11.2056,-71.420713 -1.1381,-5.83761 -2.4226,-11.1426619 -3.9265,-13.9155682 -2.4334,1.7335865 -4.5689,4.6473987 -6.2972,8.4485302 l -0.011,0.01109 c -2.9449,6.464474 -4.6524,15.414219 -4.6524,25.601328 0,2.657796 0.1201,5.430425 0.3656,8.260747 1.0911,12.500407 4.4748,23.805055 9.049,31.945423 4.36,7.748993 9.707,12.54756 15.0015,12.54756 l 0.4962,-0.01942 z m 10.0462,1.556068 c 4.9239,3.576735 9.3153,10.166309 12.8033,18.896649 8.3911,-6.16131 25.429,-20.353694 37.611,-20.353694 17.3148,-0.0055 27.0165,-4.349499 47.0307,-4.349499 17.7797,0 27.0373,2.892731 42.9893,3.910971 14.05124,0.898136 31.89331,13.628212 41.65271,20.792222 3.82721,-9.56052 8.73034,-16.557556 14.22873,-19.836669 6.14577,-28.530673 22.19157,-112.206595 0.50121,-120.926673 -10.62591,-26.468122 5.68117,-66.28264 -32.15456,-91.419368 -36.40479,23.935699 -124.04379,15.29412 -146.81509,7.90543 -41.3079,15.722384 -10.5424,65.891268 -22.9072,85.842768 -23.356,7.393955 4.7675,106.614461 5.0599,119.537863 z m 153.26371,27.204269 c -8.68871,14.19738 -37.15671,23.84167 -55.91771,23.84167 -18.6673,0 -47.9813,-8.08822 -55.8972,-24.03472 2.5274,-0.7625 8.7827,-2.76764 11.9209,-4.36004 11.3987,-5.78047 25.9251,-14.05148 43.9813,-4.79884 19.8577,-9.69117 31.9928,0.49095 44.3312,5.05985 z" />
    </g>
    <text
       xml:space="preserve"
       style="font-style:normal;font-weight:normal;font-size:180px;line-height:125%;font-family:sans-serif;letter-spacing:0px;word-spacing:0px;fill:#333333;fill-opacity:1;stroke:none;stroke-width:1px;stroke-linecap:butt;stroke-linejoin:miter;stroke-opacity:1"
       x="-2389.2549"
       y="1278.6364"
       id="text4229"><tspan
         sodipodi:role="line"
         id="tspan4231"
         x="-2389.2549"
         y="1278.6364"
         style="font-style:normal;font-variant:normal;font-weight:normal;font-stretch:normal;font-family:'Kenyan Coffee';-inkscape-font-specification:'Kenyan Coffee';fill:#333333;fill-opacity:1">THEME</tspan></text>
  </g>
</svg>
