<?xml version="1.0" encoding="UTF-8" standalone="no"?>
<!-- Created with Inkscape (http://www.inkscape.org/) -->

<svg
   xmlns:dc="http://purl.org/dc/elements/1.1/"
   xmlns:cc="http://creativecommons.org/ns#"
   xmlns:rdf="http://www.w3.org/1999/02/22-rdf-syntax-ns#"
   xmlns:svg="http://www.w3.org/2000/svg"
   xmlns="http://www.w3.org/2000/svg"
   xmlns:sodipodi="http://sodipodi.sourceforge.net/DTD/sodipodi-0.dtd"
   xmlns:inkscape="http://www.inkscape.org/namespaces/inkscape"
   width="3.96875mm"
   height="3.9687493mm"
   viewBox="0 0 3.96875 3.9687493"
   version="1.1"
   id="svg8"
   sodipodi:docname="iconos.svg"
   inkscape:version="0.92.0 r15299">
  <defs
     id="defs2" />
  <sodipodi:namedview
     id="base"
     pagecolor="#ffffff"
     bordercolor="#666666"
     borderopacity="1.0"
     inkscape:pageopacity="0.0"
     inkscape:pageshadow="2"
     inkscape:zoom="8"
     inkscape:cx="-40.24668"
     inkscape:cy="17.394138"
     inkscape:document-units="px"
     inkscape:current-layer="layer1"
     showgrid="false"
     showborder="true"
     inkscape:window-width="1920"
     inkscape:window-height="1017"
     inkscape:window-x="-8"
     inkscape:window-y="-8"
     inkscape:window-maximized="1"
     fit-margin-top="0"
     fit-margin-left="0"
     fit-margin-right="0"
     fit-margin-bottom="0" />
  <metadata
     id="metadata5">
    <rdf:RDF>
      <cc:Work
         rdf:about="">
        <dc:format>image/svg+xml</dc:format>
        <dc:type
           rdf:resource="http://purl.org/dc/dcmitype/StillImage" />
        <dc:title></dc:title>
      </cc:Work>
    </rdf:RDF>
  </metadata>
  <g
     inkscape:label="Capa 1"
     inkscape:groupmode="layer"
     id="layer1"
     transform="translate(72.462761,-67.837761)">
    <g
       id="g4490"
       inkscape:export-xdpi="96"
       inkscape:export-ydpi="96"
       transform="matrix(1,0,0,1.5,1.3030307e-6,-36.052089)">
      <rect
         y="69.458336"
         x="-84.931252"
         height="2.6458333"
         width="1.5875"
         id="rect4487"
         style="opacity:1;fill:#ad1519;fill-opacity:1;stroke:none;stroke-width:0.06443795;stroke-linejoin:miter;stroke-miterlimit:10;stroke-dasharray:none;stroke-dashoffset:0;stroke-opacity:1;paint-order:normal" />
      <rect
         y="70.119797"
         x="-84.931252"
         height="1.3229166"
         width="1.5875"
         id="rect4489"
         style="opacity:1;fill:#fabd00;fill-opacity:1;stroke:none;stroke-width:0.47049499;stroke-linejoin:miter;stroke-miterlimit:10;stroke-dasharray:none;stroke-dashoffset:0;stroke-opacity:1;paint-order:normal" />
    </g>
    <path
       style="fill:#ff0000;stroke:none;stroke-width:0.08701534px;stroke-linecap:butt;stroke-linejoin:miter;stroke-opacity:1"
       d="m -78.902441,68.003158 c -0.831823,-0.0094 -1.154232,0.875478 -0.900831,1.596704 0.306014,0.870976 1.635548,1.513484 1.899932,2.371971 0.264385,-0.858487 1.594093,-1.500995 1.900106,-2.371971 0.337867,-0.961634 -0.347979,-2.214179 -1.900106,-1.250027 -0.388031,-0.241037 -0.721826,-0.343542 -0.999101,-0.346677 z"
       id="path4495"
       inkscape:connector-curvature="0"
       inkscape:export-xdpi="96"
       inkscape:export-ydpi="96" />
    <g
       transform="translate(8.2682297,7.8382812)"
       id="g4531">
      <path
         inkscape:export-ydpi="96"
         inkscape:export-xdpi="96"
         inkscape:connector-curvature="0"
         id="path4495-7"
         d="m -79.745801,59.999554 c -0.831823,-0.0094 -1.154232,0.875478 -0.900831,1.596704 0.306014,0.870976 1.635548,1.513484 1.899932,2.371971 0.264385,-0.858487 1.594093,-1.500995 1.900106,-2.371971 0.337867,-0.961634 -0.347979,-2.214179 -1.900106,-1.250027 -0.388031,-0.241037 -0.721826,-0.343542 -0.999101,-0.346677 z"
         style="fill:#ad1519;fill-opacity:1;stroke:none;stroke-width:0.08701534px;stroke-linecap:butt;stroke-linejoin:miter;stroke-opacity:1" />
      <path
         inkscape:connector-curvature="0"
         id="rect4489-4"
         d="m -80.706285,60.991667 c -0.0014,0.01752 -0.01116,0.03196 -0.01188,0.04961 -0.0076,0.184232 0.01985,0.374697 0.0832,0.555005 0.0765,0.217745 0.216797,0.421402 0.388606,0.617533 0.171808,0.19613 0.374867,0.384688 0.576707,0.573092 0.06686,0.0624 0.123238,0.126566 0.188619,0.189135 h 1.491901 c 0.06542,-0.0626 0.121727,-0.126704 0.188619,-0.189135 0.201865,-0.188404 0.404884,-0.376962 0.576707,-0.573092 0.171825,-0.196131 0.312106,-0.399788 0.388606,-0.617533 0.06935,-0.197392 0.06826,-0.404397 0.05271,-0.604615 z"
         style="opacity:1;fill:#fabd00;fill-opacity:1;stroke:none;stroke-width:1.18794155;stroke-linejoin:miter;stroke-miterlimit:10;stroke-dasharray:none;stroke-dashoffset:0;stroke-opacity:1;paint-order:normal" />
    </g>
  </g>
</svg>
